# xmcd
#
# Track frame offsets:
#	150
#	19052
#	35077
#	57469
#	74554
#	88430
#	100861
#	113501
#	127398
#	135846
#	146499
#	164592
#	178582
#	186826
#
# Disc length: 2567 seconds
#
# Revision: 0
# Processed by: cddbd v1.4PL0 Copyright (c) Steve Scherf et al.
# Submitted via: audiograbber 1.80
#
DISCID=d20a050e
DTITLE=CDX - Volume 311 February 2003
DYEAR=2003
DGENRE=Country
TTITLE0=Brett James - After All
TTITLE1=Mark Chesnutt - I'm In Love With A Married Woman
TTITLE2=Hank Williams, Jr. and Friends - Outlaw's Reward
TTITLE3=Kellie Coffey - Whatever It Takes (Single Version)
TTITLE4=Earl Thomas Conley - I Ain't Crazy
TTITLE5=Memarie - I Need A Change
TTITLE6=Wayne Warner - Slip'n N Slide'n
TTITLE7=K Wilder - Sold Down The River
TTITLE8=Rodney Carrington - Don't Look Now
TTITLE9=Poobah (AKA Don Mealer) - Smokin' Weed With Willie
TTITLE10=Willie Nelson - Crazy
TTITLE11=Willie Nelson - Something To Think About
TTITLE12=Willie Nelson - Things To Remember
TTITLE13=Willie Nelson - Three Days
EXTD=
EXTT0=
EXTT1=
EXTT2=
EXTT3=
EXTT4=
EXTT5=
EXTT6=
EXTT7=
EXTT8=
EXTT9=
EXTT10=
EXTT11=
EXTT12=
EXTT13=
PLAYORDER=
